<svg t="1754644615751" class="icon" viewBox="0 0 1024 1024" version="1.1" xmlns="http://www.w3.org/2000/svg" width="200" height="200"><path d="M884.363636 46.545455H139.636364c-51.2 0-93.090909 41.890909-93.090909 93.090909v535.272727c0 51.2 41.890909 93.090909 93.090909 93.090909h209.454545L307.2 977.454545l283.927273-209.454545H884.363636c51.2 0 93.090909-41.890909 93.090909-93.090909V139.636364c0-51.2-41.890909-93.090909-93.090909-93.090909z" fill="#4873C0" p-id="22612"></path><path d="M884.363636 37.236364H139.636364C83.781818 37.236364 37.236364 83.781818 37.236364 139.636364v535.272727c0 55.854545 46.545455 102.4 102.4 102.4h195.490909l-41.890909 195.490909-4.654546 27.927273 23.272727-18.618182-4.654545-4.654546 4.654545 9.309091 279.272728-209.454545H884.363636c55.854545 0 102.4-46.545455 102.4-102.4V139.636364c0-55.854545-46.545455-102.4-102.4-102.4z m0 716.8h-307.2l-256 190.836363 37.236364-181.527272 4.654545-13.963637H139.636364c-46.545455 0-83.781818-37.236364-83.781819-83.781818V139.636364C55.854545 93.090909 93.090909 55.854545 139.636364 55.854545h744.727272c46.545455 0 83.781818 37.236364 83.781819 83.781819v535.272727c0 41.890909-37.236364 79.127273-83.781819 79.127273z" fill="#FFFFFF"></path></svg>