<svg t="1754968931522" class="icon" viewBox="0 0 1024 1024" version="1.1" xmlns="http://www.w3.org/2000/svg" p-id="38434" width="200" height="200"><path d="M746.057143 104.838095H277.942857C145.066667 104.838095 36.571429 213.333333 36.571429 346.209524v220.647619c0 132.87619 108.495238 241.371429 241.371428 241.371428h224.304762c29.257143 0 56.07619 15.847619 71.92381 40.228572l31.695238 52.419047c14.628571 24.380952 48.761905 24.380952 63.390476 1.219048l45.104762-69.485714c4.87619-8.533333 13.409524-15.847619 21.942857-19.504762l9.752381-4.876191C902.095238 782.628571 987.428571 699.733333 987.428571 566.857143V346.209524c0-132.87619-108.495238-241.371429-241.371428-241.371429zM323.047619 463.238095c-23.161905 0-42.666667-19.504762-42.666667-42.666666s19.504762-42.666667 42.666667-42.666667 42.666667 19.504762 42.666667 42.666667-19.504762 42.666667-42.666667 42.666666zM512 463.238095c-23.161905 0-42.666667-19.504762-42.666667-42.666666S488.838095 377.904762 512 377.904762s42.666667 19.504762 42.666667 42.666667S535.161905 463.238095 512 463.238095z m188.952381 0c-23.161905 0-42.666667-19.504762-42.666667-42.666666s19.504762-42.666667 42.666667-42.666667 42.666667 19.504762 42.666667 42.666667-19.504762 42.666667-42.666667 42.666666z" fill="#FDFFEB" p-id="38435"></path><path d="M637.561905 943.542857c-21.942857 0-41.447619-10.971429-53.638095-30.47619l-31.695239-52.419048c-10.971429-17.066667-30.47619-28.038095-51.2-28.038095H277.942857C131.657143 832.609524 12.190476 713.142857 12.190476 566.857143V346.209524c0-146.285714 119.466667-265.752381 265.752381-265.752381h468.114286c146.285714 0 265.752381 119.466667 265.752381 265.752381v220.647619c0 142.628571-91.428571 236.495238-258.438095 264.533333l-7.314286 3.657143c-3.657143 1.219048-8.533333 6.095238-10.971429 9.752381l-1.219047 1.219048-45.104762 69.485714c-9.752381 17.066667-29.257143 28.038095-51.2 28.038095zM277.942857 129.219048C158.47619 129.219048 60.952381 226.742857 60.952381 346.209524v220.647619c0 119.466667 97.52381 216.990476 216.990476 216.990476h224.304762c36.571429 0 71.92381 19.504762 92.647619 51.2l31.695238 53.638095c3.657143 6.095238 8.533333 6.095238 10.971429 6.095238 2.438095 0 7.314286 0 10.971428-6.095238l45.104762-69.485714c7.314286-12.190476 19.504762-23.161905 32.914286-29.257143l12.190476-6.095238h3.657143c146.285714-24.380952 220.647619-97.52381 220.647619-216.990476V346.209524c0-119.466667-97.52381-216.990476-216.990476-216.990476H277.942857z m458.361905 683.885714zM700.952381 487.619048c-36.571429 0-67.047619-30.47619-67.047619-67.047619s30.47619-67.047619 67.047619-67.047619 67.047619 30.47619 67.047619 67.047619-30.47619 67.047619-67.047619 67.047619z m0-85.333334c-9.752381 0-18.285714 8.533333-18.285714 18.285715s8.533333 18.285714 18.285714 18.285714 18.285714-8.533333 18.285714-18.285714-8.533333-18.285714-18.285714-18.285715zM512 487.619048c-36.571429 0-67.047619-30.47619-67.047619-67.047619S475.428571 353.52381 512 353.52381s67.047619 30.47619 67.047619 67.047619S548.571429 487.619048 512 487.619048z m0-85.333334c-9.752381 0-18.285714 8.533333-18.285714 18.285715S502.247619 438.857143 512 438.857143s18.285714-8.533333 18.285714-18.285714S521.752381 402.285714 512 402.285714z m-188.952381 85.333334c-36.571429 0-67.047619-30.47619-67.047619-67.047619s30.47619-67.047619 67.047619-67.047619 67.047619 30.47619 67.047619 67.047619-30.47619 67.047619-67.047619 67.047619z m0-85.333334c-9.752381 0-18.285714 8.533333-18.285714 18.285715s8.533333 18.285714 18.285714 18.285714 18.285714-8.533333 18.285714-18.285714-8.533333-18.285714-18.285714-18.285715z" fill="#4A2B29" p-id="38436"></path><path d="M323.047619 420.571429m-42.666667 0a42.666667 42.666667 0 1 0 85.333334 0 42.666667 42.666667 0 1 0-85.333334 0Z" fill="#F8F189" p-id="38437"></path><path d="M512 420.571429m-42.666667 0a42.666667 42.666667 0 1 0 85.333334 0 42.666667 42.666667 0 1 0-85.333334 0Z" fill="#F8F189" p-id="38438"></path><path d="M700.952381 420.571429m-42.666667 0a42.666667 42.666667 0 1 0 85.333334 0 42.666667 42.666667 0 1 0-85.333334 0Z" fill="#F8F189" p-id="38439"></path></svg>