<svg t="1754990266042" class="icon" viewBox="0 0 1024 1024" version="1.1" xmlns="http://www.w3.org/2000/svg" p-id="11206" width="200" height="200"><path d="M512 512m-512 0a512 512 0 1 0 1024 0 512 512 0 1 0-1024 0Z" fill="#43CB83" p-id="11207"></path><path d="M379.196952 383.366095a38.009905 38.009905 0 0 1 24.112762-46.762666l-7.899428 2.633142c19.139048-6.38781 45.689905 0.560762 59.367619 15.60381l155.40419 170.934857c13.653333 15.018667 8.289524 27.184762-11.922285 27.184762h-131.55962c-20.23619 0-41.350095-15.725714-47.177142-35.206095l-40.326096-134.38781z" fill="#FFFFFF" p-id="11208"></path><path d="M481.28 634.88c307.370667 0 337.92-30.72 337.92-61.44S768.170667 512 604.16 512H225.28s20.48 122.88 256 122.88zM204.8 409.6h40.96l61.44 81.92H225.28z" fill="#FFFFFF" p-id="11209"></path></svg>