<svg t="1754578668025" class="icon" viewBox="0 0 2129 1024" version="1.1" xmlns="http://www.w3.org/2000/svg" p-id="33778" width="200" height="200"><path d="M486.72 675.712L305.664 553.984l-91.392 44.096 101.44 213.824 221.568-127.936z" fill="#C3F5FF" p-id="33779"></path><path d="M468.224 830.336l-152.384 20.992 121.216 131.584 43.008-25.792z" fill="#9CDDFF" p-id="33780"></path><path d="M67.264 665.984L0 681.216l280 151.104 145.984-61.504z" fill="#A9E9FF" p-id="33781"></path><path d="M1498.816 467.264L1150.08 620.288l291.136 402.624 75.648-27.008z" fill="#9CDDFF" p-id="33782"></path><path d="M2070.848 94.528c-113.088-41.536-277.44 33.344-277.44 33.344-1372.8 576.384-1544.96 699.2-1544.96 699.2-60.544 40.448 6.4 40.512 6.4 40.512l330.048-37.76c186.368-17.6 318.336-85.76 318.336-85.76 112.384-40.704 1072.32-461.376 1072.32-461.376 51.456-27.712 102.912-75.136 102.912-75.136 34.88-25.472 51.328-77.056 51.328-77.056 4.096-25.6-59.008-35.968-59.008-35.968z" fill="#C3F5FF" p-id="33783"></path><path d="M1935.936 232.256L600.128 810.432c-21.824 9.408-15.232 19.456-15.232 19.456l16.768-1.728a1002.24 1002.24 0 0 0 158.848-31.104c88.32-24.832 142.784-52.928 142.784-52.928 112.384-40.704 1072.32-461.376 1072.32-461.376 51.456-27.712 102.912-75.136 102.912-75.136-17.856-18.048-142.592 24.64-142.592 24.64z" fill="#A9E9FF" p-id="33784"></path><path d="M241.344 30.848L181.376 1.28l-27.328 8.64 35.84 58.432 801.216 492.992 362.368-157.376z" fill="#9EEEFF" p-id="33785"></path></svg>