<?xml version="1.0" standalone="no"?><!DOCTYPE svg PUBLIC "-//W3C//DTD SVG 1.1//EN" "http://www.w3.org/Graphics/SVG/1.1/DTD/svg11.dtd"><svg t="1772270185233" class="icon" viewBox="0 0 1024 1024" version="1.1" xmlns="http://www.w3.org/2000/svg" p-id="2997" xmlns:xlink="http://www.w3.org/1999/xlink" width="200" height="200"><path d="M936.32 167.36H507.2l-13.44-41.76c-5.28-16.32-21.12-27.36-39.36-27.36H87.68c-23.04 0-41.28 17.28-41.28 38.88v729.6c0 38.4 38.88 59.04 61.92 59.04h807.36c23.04 0 61.92-11.52 61.92-58.56V206.24c0-21.6-18.24-38.88-41.28-38.88z m-216.48 425.28L660.8 650.72c-4.32 3.84-5.76 8.64-4.8 13.92l14.4 82.56c1.44 8.64-0.96 17.28-6.72 24.48-6.24 6.72-14.4 11.04-23.52 11.04-4.8 0-8.64-0.96-13.92-3.84l-75.36-39.36c-1.92-0.96-4.8-1.92-7.68-1.92s-5.76 0.96-7.68 1.44l-74.88 39.84c-4.8 2.88-8.64 3.84-13.92 3.84-8.64 0-17.76-4.32-23.04-10.56-6.24-6.24-8.16-15.84-6.72-24.48l14.4-82.56c0.96-5.28-0.96-10.08-4.8-13.92l-60.48-58.08c-8.16-8.16-11.52-19.68-7.68-30.72 3.84-11.04 12.96-18.72 24.48-20.64l83.52-12c5.28-0.96 10.08-4.32 12-8.16l37.44-75.36c5.28-10.08 15.84-16.8 26.88-16.8 11.52 0 22.08 6.24 26.88 16.8l37.44 75.36c2.88 4.8 7.2 7.68 12 8.16l83.52 12c11.52 1.92 21.12 9.6 24.48 20.16 3.84 11.04 0.96 23.04-7.2 30.72z m193.92-294.24H111.2v-33.6c0-21.6 18.24-38.88 41.28-38.88h720.48c23.04 0 41.28 17.28 41.28 38.88v33.6z" p-id="2998"></path></svg>