<svg t="1754578800953" class="icon" viewBox="0 0 1024 1024" version="1.1" xmlns="http://www.w3.org/2000/svg" p-id="36672" width="200" height="200"><path d="M0 0m512 0l0 0q512 0 512 512l0 0q0 512-512 512l0 0q-512 0-512-512l0 0q0-512 512-512Z" fill="#49AA19" p-id="36673"></path><path d="M417.28 564.864c3.776 0 6.784 4.224 8.32 10.112 1.536 4.16 2.304 10.88 2.304 17.6a61.12 61.12 0 0 1-2.304 17.6c-1.536 6.72-4.544 10.112-8.32 10.112-3.84 0-6.912-4.224-8.384-10.112a57.28 57.28 0 0 1-2.304-17.6c0-6.72 0.768-12.608 2.304-17.6 0.704-5.888 3.776-10.112 8.32-10.112z m63.104-253.44c2.304 0 4.608 2.496 6.144 6.656a54.272 54.272 0 0 1 1.472 11.776 54.272 54.272 0 0 1-1.472 11.776c-0.768 1.664-1.536 3.328-2.304 4.16h3.84a51.072 51.072 0 0 0-0.832-35.2c20.608-3.392 40.32-3.392 60.16-0.896L633.408 256l75.328 6.72-12.928 17.6h-26.624l-0.768 0.832-49.472 58.752-3.84 4.224h35.072l-25.152 35.2h-25.088l-1.536 0.896-11.456 22.656H398.208l32-20.16c3.776-9.216 4.48-26.88 0-36.096 16-2.496 31.168-3.328 46.4-2.496a6.784 6.784 0 0 1-1.536-4.224 54.272 54.272 0 0 1-1.536-11.712c0-4.224 0.768-8.384 1.536-11.776 0.768-2.56 3.072-4.992 5.312-4.992z m6.4 17.6c0-3.328-3.2-6.72-3.2-9.216-3.2 2.56-3.2 5.888-3.2 9.216 0 4.224 0 7.552 3.2 9.216 0-1.664 3.2-4.992 3.2-9.216z m-64.192 18.496c-2.304 0-4.608 2.496-6.144 6.656-0.704 2.56-0.704 6.72-0.704 11.776 0 4.224 0.704 8.384 1.472 11.776 1.536 4.16 3.072 6.72 6.08 6.72 2.304 0 4.608-2.56 6.144-6.72a54.272 54.272 0 0 0 1.472-11.776 54.272 54.272 0 0 0-1.472-11.776c-2.304-4.16-3.84-6.656-6.848-6.656z m6.4 18.432c0-3.328-3.2-6.72-3.2-9.216-3.2 2.56-3.2 5.888-3.2 9.216 0 3.328 3.2 6.72 3.2 9.216 0-2.496 3.2-5.888 3.2-9.216z m-3.648 16.128s0-6.656 0 0c0-6.656 0 0 0 0z m331.392 109.76L835.84 563.2h49.472l-26.624-54.528c12.16-5.888 23.616-13.44 37.312-26.048a249.216 249.216 0 0 0-41.856-40.32l19.84-144.32H799.36l-66.24 120.832H227.712c-7.616 0.832-23.616 10.112-25.856 17.664 3.008 2.496 9.856 5.824 15.168 7.552l-6.848 13.44a49.28 49.28 0 0 1-21.312-13.44c-36.48 14.272-60.864 31.872-60.864 59.52 4.544 21.888 44.16 30.272 99.712 33.6H409.6l18.304 10.88 12.928 15.168a76.416 76.416 0 0 1-13.696 1.664c6.848 14.272 6.848 41.984 0 55.424 22.848 4.16 44.928 5.888 67.712 4.16l5.376 6.72-17.536 2.56c6.848 14.272 6.848 41.92 0 55.36 24.32 4.224 48 5.888 72.32 4.224L620.48 768h97.408l-16-38.592-25.088-0.832h-1.536l-0.768-1.728-35.776-78.848-1.536-3.392h28.16l-25.856-60.416h-28.16l0.768-3.392 7.616-42.752V536.32h84.48c24.32-2.496 48.704-3.328 72.32-6.72l-24.32-36.928 0.704-6.72 79.936 3.392v2.56h-76.16z m-159.104-88.96h19.84l9.088-19.328h-19.008l-9.92 19.328z m60.16-63.808l38.784-53.696h-21.312l-44.928 53.76h27.456z m-184.96 294.656c3.776 0 6.848 4.16 8.32 10.048 1.536 4.224 2.304 10.88 2.304 17.6a61.12 61.12 0 0 1-2.304 17.664c-1.472 5.888-4.544 10.048-8.32 10.048-3.84 0-6.912-4.16-8.384-10.048a57.28 57.28 0 0 1-2.304-17.664c0-6.656 0.768-12.544 2.304-17.6 0.768-6.72 3.84-10.048 8.32-10.048z m4.736 16.192c-6.016-6.72-6.016-6.72 0 0 0-6.72 0-6.72 0 0z m0.128 11.52c0 5.824-1.6 10.88-3.2 14.208a33.728 33.728 0 0 1 0-28.544c1.6 3.392 3.2 8.448 3.2 14.272z m-55.68-81.28s0-6.656 0 0c-6.08-6.656-6.08 0 0 0z m0.128 12.416a33.728 33.728 0 0 0-3.2-14.272 33.728 33.728 0 0 0 0 28.544 33.728 33.728 0 0 0 3.2-14.272z m-0.128 22.016s0-6.72 0 0c-6.08-6.72-6.08 0 0 0z m280.64 108.096l-21.312-0.832-33.472-73.856h22.848l32 74.688z m-59.328-142.72h-21.312l6.848-37.76h20.48l-6.016 37.76zM234.56 458.304h-19.84l6.912-13.44h16l-3.072 13.44z m7.616-13.44h17.472c-1.472 10.048-0.704 3.328-2.24 13.44h-19.072l3.84-13.44z" fill="#FFFFFF" p-id="36674"></path></svg>