<?xml version="1.0" standalone="no"?><!DOCTYPE svg PUBLIC "-//W3C//DTD SVG 1.1//EN" "http://www.w3.org/Graphics/SVG/1.1/DTD/svg11.dtd"><svg t="1772270354058" class="icon" viewBox="0 0 1024 1024" version="1.1" xmlns="http://www.w3.org/2000/svg" p-id="2997" xmlns:xlink="http://www.w3.org/1999/xlink" width="200" height="200"><path d="M977.60427083 800.90708333l-94.9865625-294.50625a65.173125 65.173125 0 0 0-61.333125-45.654375h-73.92c-48.69375 76.8534375-116.3203125 138.9871875-160.693125 180.48l-8.4271875 6.1875a85.44 85.44 0 0 1-61.333125 24.905625c-23.199375 0-46.453125-8.319375-61.2796875-24.9065625l-8.4271875-8.2659375C400.69770833 595.57302083 335.20489583 533.33333333 286.56458333 458.66708333h-78.1865625c-29.5996875 0-54.93375 18.665625-61.2796875 45.6525L56.21802083 794.66708333c-14.773125 47.679375 29.5996875 93.3328125 78.1875 80.8528125l200.799375-49.7596875c18.98625-4.160625 40.1596875 0 54.9328125 10.34625l158.506875 118.2403125c16.906875 12.48 35.9465625 16.58625 54.93375 10.3996875l327.5728125-82.9865625c16.906875-4.1596875 31.734375-14.506875 40.160625-31.093125a52.4803125 52.4803125 0 0 0 6.346875-49.813125" p-id="2998"></path><path d="M497.92489583 601.75958333a27.14625 27.14625 0 0 0 38.026875 0c69.759375-66.346875 207.09375-188.746875 207.09375-323.5725C745.17739583 153.76020833 643.73802083 54.18645833 519.04395833 54.18645833S290.77770833 153.76020833 290.77770833 276.16020833c0 136.8534375 135.3065625 257.173125 207.1471875 325.599375m21.12-408.5859375c31.7334375 0 59.199375 14.5059375 73.9734375 41.49375a87.0403125 87.0403125 0 0 1 0 85.0125c-14.7740625 26.986875-44.37375 41.49375-73.9734375 41.49375-46.5065625 0-84.534375-37.3340625-84.534375-82.9875 0-47.679375 38.0278125-85.0125 84.534375-85.0125" p-id="2999"></path></svg>