<?xml version="1.0" standalone="no"?><!DOCTYPE svg PUBLIC "-//W3C//DTD SVG 1.1//EN" "http://www.w3.org/Graphics/SVG/1.1/DTD/svg11.dtd"><svg class="icon" width="200" height="200" viewBox="0 0 1024 1024" version="1.1" xmlns="http://www.w3.org/2000/svg"><path d="M227.555556 952.888889a113.92 113.92 0 0 1-113.777778-113.777778V227.555556a113.905778 113.905778 0 0 1 113.777778-113.777778h71.111111v71.111111a56.888889 56.888889 0 1 0 113.777777 0V113.777778h170.666667v71.111111a56.888889 56.888889 0 1 0 113.777778 0V113.777778h99.555555a113.905778 113.905778 0 0 1 113.777778 113.777778v611.555555a113.92 113.92 0 0 1-113.777778 113.777778H227.555556z m170.666666-241.777778a28.444444 28.444444 0 0 0 28.444445 28.444445h298.666666a28.444444 28.444444 0 1 0 0-56.888889H426.666667a28.444444 28.444444 0 0 0-28.444445 28.444444z m-128 0a28.444444 28.444444 0 0 0 28.444445 28.444445h28.444444a28.444444 28.444444 0 1 0 0-56.888889h-28.444444a28.444444 28.444444 0 0 0-28.444445 28.444444z m128-170.666667a28.444444 28.444444 0 0 0 28.444445 28.444445h298.666666a28.444444 28.444444 0 1 0 0-56.888889H426.666667a28.444444 28.444444 0 0 0-28.444445 28.444444z m-128 0a28.444444 28.444444 0 0 0 28.444445 28.444445h28.444444a28.444444 28.444444 0 1 0 0-56.888889h-28.444444a28.444444 28.444444 0 0 0-28.444445 28.444444z m128-184.888888a28.444444 28.444444 0 0 0 28.444445 28.444444h298.666666a28.444444 28.444444 0 1 0 0-56.888889H426.666667a28.444444 28.444444 0 0 0-28.444445 28.444445z m-128 0a28.444444 28.444444 0 0 0 28.444445 28.444444h28.444444a28.444444 28.444444 0 1 0 0-56.888889h-28.444444a28.444444 28.444444 0 0 0-28.444445 28.444445z m341.333334-170.666667V71.111111a28.444444 28.444444 0 1 1 56.888888 0v113.777778a28.444444 28.444444 0 1 1-56.888888 0z m-284.444445 0V71.111111a28.444444 28.444444 0 1 1 56.888889 0v113.777778a28.444444 28.444444 0 1 1-56.888889 0z" /></svg>