<?xml version="1.0" standalone="no"?><!DOCTYPE svg PUBLIC "-//W3C//DTD SVG 1.1//EN" "http://www.w3.org/Graphics/SVG/1.1/DTD/svg11.dtd"><svg t="1742874279148" class="icon" viewBox="0 0 1024 1024" version="1.1" xmlns="http://www.w3.org/2000/svg" p-id="5354" xmlns:xlink="http://www.w3.org/1999/xlink" width="200" height="200"><path d="M874.08 909.54h-33.24c5.82-24.84 8.93-50.72 8.93-77.33-0.02-148.88-96.36-275.26-230.09-320.21 133.73-44.96 230.05-171.33 230.05-320.21 0-26.61-3.1-52.49-8.93-77.33h33.24c13.81 0 25-11.19 25-25 0.02-13.81-11.17-25-24.98-25H149.92c-13.81 0-25 11.19-25 25s11.19 25 25 25h33.24a338.598 338.598 0 0 0-8.93 77.33c0 148.88 96.33 275.26 230.06 320.21-133.73 44.96-230.05 171.33-230.05 320.21 0 26.61 3.1 52.49 8.93 77.33h-33.24c-13.81 0-25 11.19-25 25s11.19 25 25 25h724.15c13.81 0 25-11.19 25-25s-11.19-25-25-25zM594.86 412.37c0.59-11.13 8.46-20.5 19.29-23.09 70.86-16.93 125.55-81.22 129.79-160.72 0.24-4.43 0.31-8.83 0.23-13.19-0.27-14.51 11.96-26.14 26.45-25.37l0.68 0.04c13.09 0.7 23.53 11.35 23.77 24.46 0.1 5.55 0.01 11.14-0.29 16.77-5.46 102.28-76.61 184.98-168.94 206.85-16.35 3.88-31.87-8.96-30.98-25.75z" p-id="5355"></path></svg>