<?xml version="1.0" standalone="no"?><!DOCTYPE svg PUBLIC "-//W3C//DTD SVG 1.1//EN" "http://www.w3.org/Graphics/SVG/1.1/DTD/svg11.dtd"><svg t="1772270412412" class="icon" viewBox="0 0 1024 1024" version="1.1" xmlns="http://www.w3.org/2000/svg" p-id="2997" xmlns:xlink="http://www.w3.org/1999/xlink" width="200" height="200"><path d="M504.89448308 131.85487274a334.62960195 334.62960195 0 0 0-277.24920491 95.72337172 334.62960195 334.62960195 0 0 0-95.18710687 282.07559501L64.95576615 509.65383947a401.46167641 401.46167641 0 0 1 115.2970589-329.46804813 401.32760902 401.32760902 0 0 1 324.64165803-115.76629006l0 67.43537146z m-16.62422648 403.87487066l-53.69357196-53.76060563a67.03317398 67.03317398 0 1 1 47.39245313-47.39245313l53.76060563 53.69357196 307.34710087-307.34710087c173.88405145 196.67533094 176.56537891 487.0630384 0.67033068 662.89105293-175.76098081 175.82801453-466.14868828 173.14668705-662.82401922-0.73736439l307.34710087-307.34710087z m-165.84007065-213.29955745c49.60454786-49.60454786 118.51465123-67.90460419 182.46429713-54.90016906l0-68.03867159a267.79752746 267.79752746 0 0 0-229.92378393 75.54638597 267.79752746 267.79752746 0 0 0-74.67495578 234.6161082l68.30680324 0a200.96545458 200.96545458 0 0 1 53.82763934-187.22365352z m513.74224092-39.88473872c107.05197854 166.5774366 93.57831068 380.48029259-39.75067133 513.8092746-133.39601573 133.39601573-347.23183802 146.8026499-513.80927462 39.81770504l553.55994595-553.62697964z" p-id="2998"></path></svg>