<svg t="1750139416121" class="icon" viewBox="0 0 1024 1024" version="1.1" xmlns="http://www.w3.org/2000/svg" p-id="39236" width="200" height="200"><path d="M810.666667 128h-178.346667C614.4 78.506667 567.466667 42.666667 512 42.666667c-55.466667 0-102.4 35.84-120.32 85.333333H213.333333c-46.933333 0-85.333333 38.4-85.333333 85.333333v597.333334c0 46.933333 38.4 85.333333 85.333333 85.333333h597.333334c46.933333 0 85.333333-38.4 85.333333-85.333333V213.333333c0-46.933333-38.4-85.333333-85.333333-85.333333z m-298.666667 0c23.466667 0 42.666667 19.2 42.666667 42.666667s-19.2 42.666667-42.666667 42.666666-42.666667-19.2-42.666667-42.666666 19.2-42.666667 42.666667-42.666667z m-85.333333 597.333333l-170.666667-170.666666 60.16-60.16L426.666667 604.586667l281.173333-281.173334L768 384l-341.333333 341.333333z" p-id="39237"></path></svg>