<svg t="1754650378452" class="icon" viewBox="0 0 1024 1024" version="1.1" xmlns="http://www.w3.org/2000/svg" p-id="29046" width="200" height="200"><path d="M639.136 820.384C689.6 898.688 736 960 736 960s46.336-61.312 96.864-139.616C893.44 726.528 960 608.224 960 541.536 960 419.2 859.712 320 736 320s-224 99.2-224 221.536c0 66.72 66.56 184.992 127.136 278.848zM154.816 414.272C190.88 469.088 224 512 224 512s33.12-42.912 69.184-97.728C336.448 348.576 384 265.792 384 219.072 384 133.44 312.352 64 224 64S64 133.44 64 219.072c0 46.72 47.552 129.504 90.816 195.2z" fill="#E0EBFE" p-id="29047"></path><path d="M736 288c-141.152 0-256 113.728-256 253.536 0 60.544 44.48 160.224 132.256 296.224A2626.144 2626.144 0 0 0 673.28 928H205.28C162.656 928 128 892.096 128 848S162.656 768 205.28 768h62.432c77.888 0 141.248-64.608 141.248-144 0-73.12-53.92-132.992-123.2-142.144 10.336-14.624 21.984-31.488 34.144-49.984C416 286.016 416 235.648 416 219.072 416 115.936 329.888 32 224 32S32 115.936 32 219.072c0 16.576 0 66.944 96.096 212.8a1781.12 1781.12 0 0 0 70.56 99.68c0.384 0.48 0.992 0.672 1.408 1.152a31.36 31.36 0 0 0 7.36 6.016c1.152 0.704 2.048 1.6 3.264 2.176A31.52 31.52 0 0 0 224 544h43.712c42.592 0 77.248 35.904 77.248 80S310.304 704 267.712 704H205.28C127.36 704 64 768.608 64 848S127.36 992 205.28 992H736c4.832 0 9.28-1.248 13.408-3.168 1.216-0.544 2.112-1.472 3.232-2.176a31.392 31.392 0 0 0 7.424-6.144c0.416-0.48 1.056-0.704 1.472-1.216 1.92-2.56 47.616-63.168 98.24-141.568C947.456 701.76 992 602.08 992 541.536 992 401.728 877.152 288 736 288zM266.464 396.672A1822.528 1822.528 0 0 1 224 458.208a1777.984 1777.984 0 0 1-42.464-61.536C104.32 279.488 96 233.44 96 219.072 96 151.232 153.408 96 224 96s128 55.232 128 123.072c0 14.368-8.32 60.416-85.536 177.6z m539.52 406.368A2634.816 2634.816 0 0 1 736 905.76a2644.288 2644.288 0 0 1-70.016-102.72C559.84 638.528 544 568.576 544 541.536 544 437.024 630.112 352 736 352s192 85.024 192 189.536c0 27.04-15.84 96.96-122.016 261.504z" fill="#5465CF" p-id="29048"></path><path d="M736 448c-52.928 0-96 43.072-96 96s43.072 96 96 96 96-43.072 96-96-43.072-96-96-96z m0 160c-35.296 0-64-28.704-64-64s28.704-64 64-64 64 28.704 64 64-28.704 64-64 64zM224 160c-35.296 0-64 28.704-64 64s28.704 64 64 64 64-28.704 64-64-28.704-64-64-64z m0 96a32.032 32.032 0 0 1 0-64 32.032 32.032 0 0 1 0 64z" fill="#5465CF" p-id="29049"></path></svg>