<svg t="1754990778141" class="icon" viewBox="0 0 1024 1024" version="1.1" xmlns="http://www.w3.org/2000/svg" p-id="22023" width="200" height="200"><path d="M512 0a512 512 0 1 0 512 512A512 512 0 0 0 512 0z m28.16 310.853818a97.093818 97.093818 0 0 1 3.281455-13.521454 84.666182 84.666182 0 1 1 1.28 54.853818c0-1.093818-0.907636-2.187636-1.28-3.281455a83.386182 83.386182 0 0 1-4.212364-25.227636 73.146182 73.146182 0 0 1 0.907636-12.8z m102.4 447.278546H373.387636a50.641455 50.641455 0 1 1 0-43.892364H642.327273a82.827636 82.827636 0 0 0 85.573818-79.36 82.827636 82.827636 0 0 0-85.573818-79.36l-246.807273-1.629091a121.6 121.6 0 0 1 0-243.013818h128a73.169455 73.169455 0 0 0-1.093818 11.892364 83.386182 83.386182 0 0 0 4.026182 24.692363c0 1.093818 0.907636 2.187636 1.28 3.281455h-132.212364a81.012364 81.012364 0 1 0 0 162.001454L642.327273 512a126.72 126.72 0 0 1 129.466182 123.345455 126.533818 126.533818 0 0 1-129.466182 122.228363z" fill="#43CB83" p-id="22024"></path><path d="M642.373818 512H395.52a81.012364 81.012364 0 0 1 0-162.001455h132.212364c0-1.093818-0.907636-2.187636-1.28-3.281454a83.409455 83.409455 0 0 1-4.212364-25.227636 73.192727 73.192727 0 0 1 1.093818-11.892364h-128a121.6 121.6 0 0 0 0 243.013818l246.853818 1.652364a79.662545 79.662545 0 1 1 0.186182 158.906182H373.387636a50.641455 50.641455 0 1 0 0 43.892363h268.986182a122.693818 122.693818 0 1 0 0-245.038545z" fill="#FFFFFF" p-id="22025"></path><path d="M544.744727 350.72a84.107636 84.107636 0 1 0-1.28-54.853818 97.303273 97.303273 0 0 0-3.281454 13.521454 73.122909 73.122909 0 0 0-1.093818 11.892364 83.409455 83.409455 0 0 0 4.212363 26.158545 25.972364 25.972364 0 0 0 1.442909 3.281455z" fill="#FFFFFF" p-id="22026"></path></svg>