<?xml version="1.0" standalone="no"?><!DOCTYPE svg PUBLIC "-//W3C//DTD SVG 1.1//EN" "http://www.w3.org/Graphics/SVG/1.1/DTD/svg11.dtd"><svg t="1743671599404" class="icon" viewBox="0 0 1024 1024" version="1.1" xmlns="http://www.w3.org/2000/svg" p-id="4453" xmlns:xlink="http://www.w3.org/1999/xlink" width="200" height="200"><path d="M767.2 65.1c48.5 0 87.9 40 87.9 89.4v224.3c0 9.3-9.5 15.5-18.1 11.9-149.2-63.4-323.9-13-415.9 122.7C331.4 646 346.3 821.7 453.5 937c7.7 8.3 1.9 21.8-9.4 21.8H151.9c-48.5 0-87.9-40.1-87.9-89.4v-715c0-49.3 39.3-89.4 87.9-89.4h615.3zM324.9 383.2H198.7c-13.7 0-24.8 11.1-24.8 24.8v46.2c0 13.7 11.1 24.8 24.8 24.8h126.2c13.7 0 24.8-11.1 24.8-24.8V408c0-13.7-11.1-24.8-24.8-24.8z m393.2-195.6H201c-15 0-27.2 12.2-27.2 27.2v41.3c0 15 12.2 27.2 27.2 27.2h517c15 0 27.2-12.2 27.2-27.2v-41.3c0-15-12.1-27.2-27.1-27.2z m27.1 0"  p-id="4454"></path><path d="M511.2 723.6c7.5 0 13.5-6.4 12.9-13.9-5.7-72.1 37.7-142.2 111.8-169.8 53.5-20 110.9-12.9 154.5 12.4 6.4 3.7 8.4 12 4.4 18.3l-17.9 27.7c-5.6 8.6 0.7 20 10.9 20l127.9-0.5c9 0 15.2-8.9 12.1-17.3l-45.7-126.7c-3.6-10.1-17.2-11.6-23.1-2.6l-10.2 15.9c-3.7 5.7-11.2 7.6-17.2 4.3-64.5-35.8-148.9-46.3-223.2-18.6-104.5 38.8-166.4 137-159.9 238.7 0.4 6.8 6.1 12.1 12.9 12.1h49.8z m371.1-42c12.8 76.8-31.2 154.4-110.1 183.7-47.8 17.4-100.3 14.5-145.6-7.6-7-3.4-9.4-12.1-5.2-18.7l14.6-22.6c5.4-8.3-0.3-19.4-10.2-19.9l-139.5-7.8c-9.7-0.5-16.5 9.4-12.5 18.2l59 132.4c4.2 9.4 17.1 10.4 22.7 1.8l12.8-19.8c3.7-5.7 11.2-7.6 17.2-4.3 63.7 35.5 139.9 43.4 214.2 15.6C904.2 893.7 966 795.4 959.6 693.7c-0.4-6.8-6.1-12.2-12.9-12.2l-64.4 0.1z m0 0"  p-id="4455"></path></svg>