<?xml version="1.0" standalone="no"?><!DOCTYPE svg PUBLIC "-//W3C//DTD SVG 1.1//EN" "http://www.w3.org/Graphics/SVG/1.1/DTD/svg11.dtd"><svg t="1733364268270" class="icon" viewBox="0 0 1024 1024" version="1.1" xmlns="http://www.w3.org/2000/svg" p-id="12689" xmlns:xlink="http://www.w3.org/1999/xlink" width="200" height="200"><path d="M1003.87 611.602c5.684-30.195 8.787-61.301 8.787-93.146 0-276.506-224.152-500.658-500.657-500.658S11.343 241.95 11.343 518.456c0 31.845 3.103 62.951 8.787 93.146h983.74zM983.547 664.295H40.453C18.109 664.295 0 682.404 0 704.748s18.109 40.453 40.453 40.453h943.094c22.344 0 40.453-18.109 40.453-40.453s-18.109-40.453-40.453-40.453zM902.048 794.795H121.952c-22.344 0-40.453 18.109-40.453 40.453s18.109 40.453 40.453 40.453h780.096c22.344 0 40.453-18.109 40.453-40.453s-18.109-40.453-40.453-40.453zM675.005 925.296h-326.01c-22.344 0-40.453 18.109-40.453 40.453s18.109 40.453 40.453 40.453h326.011c22.344 0 40.453-18.109 40.453-40.453s-18.11-40.453-40.454-40.453z" p-id="12690"></path></svg>