<?xml version="1.0" standalone="no"?><!DOCTYPE svg PUBLIC "-//W3C//DTD SVG 1.1//EN" "http://www.w3.org/Graphics/SVG/1.1/DTD/svg11.dtd"><svg class="icon" width="200" height="200" viewBox="0 0 1024 1024" version="1.1" xmlns="http://www.w3.org/2000/svg"><path d="M74.24 998.4a48.64 48.64 0 0 1-48.64-48.64v-875.52a48.64 48.64 0 0 1 97.28 0v875.52a48.64 48.64 0 0 1-48.64 48.64z m291.84-437.76A48.64 48.64 0 0 1 317.44 512V74.24a48.64 48.64 0 0 1 97.28 0V512a48.64 48.64 0 0 1-48.64 48.64z m291.84 0a48.64 48.64 0 0 1-48.64-48.64V74.24a48.64 48.64 0 0 1 97.28 0V512a48.64 48.64 0 0 1-48.64 48.64z m194.56 0h-778.24A48.64 48.64 0 0 1 25.6 512V74.24A48.64 48.64 0 0 1 74.24 25.6h778.24A145.92 145.92 0 0 1 998.4 171.52V414.72a145.92 145.92 0 0 1-145.92 145.92zM122.88 463.36h729.6A48.64 48.64 0 0 0 901.12 414.72V171.52a48.64 48.64 0 0 0-48.64-48.64H122.88z m0 0"  /></svg>