<svg t="1763691234990" class="icon" viewBox="0 0 1024 1024" version="1.1" xmlns="http://www.w3.org/2000/svg" p-id="18520" width="200" height="200"><path d="M608 85.333333a96 96 0 0 1 86.016 53.333334H802.133333c44.736 0 80.874667 35.84 83.093334 80.448l0.106666 4.352 0.021334 149.461333a361.28 361.28 0 0 0-227.2-95.146667l-9.066667-0.341333L640 277.333333a361.536 361.536 0 0 0-256.426667 106.24A361.536 361.536 0 0 0 277.333333 640c0 100.138667 40.597333 190.805333 106.24 256.426667 15.552 15.573333 32.512 29.738667 50.688 42.261333L221.866667 938.666667c-44.736 0-80.874667-35.84-83.093334-80.448l-0.106666-4.352v-630.4c0-45.162667 34.752-82.410667 78.890666-84.693334L221.866667 138.666667h108.117333a96.021333 96.021333 0 0 1 81.130667-53.205334L416 85.333333h192zM640 341.333333c164.949333 0 298.666667 133.717333 298.666667 298.666667s-133.717333 298.666667-298.666667 298.666667-298.666667-133.717333-298.666667-298.666667 133.717333-298.666667 298.666667-298.666667z m98.453333 211.306667l-2.261333 2.346667-117.397333 135.04-62.997334-62.122667-2.432-2.176a32 32 0 0 0-44.714666 45.333333l2.218666 2.410667 79.168 78.08 1.962667 1.834667a42.666667 42.666667 0 0 0 57.664-1.536l2.538667-2.688 132.266666-152.170667 2.048-2.56a32 32 0 0 0-48.064-41.792zM600 149.333333h-176l-2.816 0.149334C406.293333 151.04 394.666667 164.693333 394.666667 181.333333c0 16.64 11.626667 30.293333 26.517333 31.850667l2.816 0.149333h176l2.816-0.149333C617.706667 211.626667 629.333333 197.973333 629.333333 181.333333c0-17.664-13.141333-32-29.333333-32z"></path></svg>