<svg t="1754651655812" class="icon" viewBox="0 0 1024 1024" version="1.1" xmlns="http://www.w3.org/2000/svg" p-id="49038" width="200" height="200"><path d="M428.473288 1023.964731c-81.816451 0-157.919364-18.050547-214.271776-50.737626C146.259788 933.768425 110.335037 875.497393 110.335037 804.832921c0-187.375826 206.357468-258.117889 309.539729-292.385008-52.994827-63.808226-76.871772-115.272389-76.871772-211.640727 0-83.128449 35.755461-160.084865 100.706395-216.747642C505.048802 30.648546 588.60753 0 673.047976 0c70.579827 0 130.600189 18.135192 173.458776 52.444634 43.888435 35.120623 67.130543 84.496876 67.130542 142.810231 0 167.70997-174.008969 253.864477-248.327283 290.678l-0.811181 0.430279c76.540246 71.595567 119.906703 165.114189 119.906703 260.671346 0 77.598308-33.110304 147.536243-93.257634 196.954819-63.638936 52.303559-154.477134 79.975422-262.674611 79.975422z m50.307348-445.705327c-81.816451 46.145635-211.295093 155.365906-211.295094 236.498144 0 80.617313 69.211399 141.399481 160.980692 141.399481 87.134979 0 180.900483-52.952504 180.900483-169.240634 0.007054-68.745851-38.682767-119.144898-130.586081-208.656991zM671.051764 67.76538c-81.259205 0-168.944376 57.89013-168.944376 151.408753 0 65.33889 50.483692 153.024061 101.305964 208.360733 110.073775-60.866812 172.950906-150.005056 172.950906-246.246427 0-73.725799-54.271556-113.523059-105.312494-113.523059z" fill="#D84894" p-id="49039"></path></svg>