<svg viewBox="0 0 1024 1024" version="1.1" xmlns="http://www.w3.org/2000/svg"><path d="M782.933333 840.533333 512 571.733333 241.066667 840.533333c-17.066667 17.066667-42.666667 17.066667-59.733333 0-17.066667-17.066667-17.066667-42.666667 0-59.733333L452.266667 512 183.466667 241.066667c-17.066667-17.066667-17.066667-42.666667 0-59.733333 17.066667-17.066667 42.666667-17.066667 59.733333 0L512 452.266667 782.933333 183.466667c17.066667-17.066667 42.666667-17.066667 59.733333 0 17.066667 17.066667 17.066667 42.666667 0 59.733333L571.733333 512l270.933333 270.933333c17.066667 17.066667 17.066667 42.666667 0 59.733333C825.6 857.6 797.866667 857.6 782.933333 840.533333z"></path></svg>