<svg t="1740473362547" class="icon" viewBox="0 0 1024 1024" version="1.1" xmlns="http://www.w3.org/2000/svg" p-id="108505" width="200" height="200"><path d="M653.187122 393.365854h-50.675512v-134.868293a68.058537 68.058537 0 0 0-67.783805-67.783805h-135.617561V140.06322c0-11.938341-2.247805-23.102439-7.442732-33.542244-13.411902-29.795902-42.458537-50.650537-77.474341-50.650537a84.667317 84.667317 0 0 0-50.675512 17.133268c-20.105366 15.634732-33.517268 39.486439-33.517269 67.059513v50.650536h-134.119024C58.642732 190.713756 28.821854 221.283902 28.821854 258.522537v128.124878h50.675512c50.650537 0 90.91122 40.984976 90.911219 90.911219 0 50.675512-40.984976 90.91122-90.911219 90.91122H28.821854v128.874146a68.058537 68.058537 0 0 0 67.80878 67.80878H224.780488v-50.675512c0-34.266537 19.381073-64.062439 46.954146-79.722146 13.386927-7.442732 27.548098-11.913366 43.957073-11.913366 38.712195 0 70.755902 23.851707 84.167805 57.368976 4.49561 10.439805 6.718439 21.603902 6.718439 33.517268v50.675512h128.124878a68.033561 68.033561 0 0 0 67.808781-67.80878v-134.843317h50.675512c46.929171 0 84.167805-37.987902 84.167805-84.167805 0-46.204878-37.962927-84.217756-84.167805-84.217756z" fill="#F2F2F2" p-id="108506"></path><path d="M653.187122 393.365854h-50.675512v-134.868293a68.058537 68.058537 0 0 0-67.783805-67.783805h-135.617561V140.06322c0-11.938341-2.247805-23.102439-7.442732-33.542244-13.411902-29.795902-42.458537-50.650537-77.474341-50.650537a84.667317 84.667317 0 0 0-50.675512 17.133268c-20.105366 15.634732-33.517268 39.486439-33.517269 67.059513v50.650536h-134.119024C58.642732 190.713756 28.821854 221.283902 28.821854 258.522537v128.124878h50.675512c50.650537 0 90.91122 40.984976 90.911219 90.911219 0 50.675512-40.984976 90.91122-90.911219 90.91122H28.821854v128.874146a68.058537 68.058537 0 0 0 67.80878 67.80878H224.780488v-50.675512c0-34.266537 19.381073-64.062439 46.954146-79.722146 13.386927-7.442732 27.548098-11.913366 43.957073-11.913366 38.712195 0 70.755902 23.851707 84.167805 57.368976 4.49561 10.439805 6.718439 21.603902 6.718439 33.517268v50.675512h128.124878a68.033561 68.033561 0 0 0 67.808781-67.80878v-134.843317h50.675512c46.929171 0 84.167805-37.987902 84.167805-84.167805 0-46.204878-37.962927-84.217756-84.167805-84.217756z" fill="#F2F2F2" p-id="108507"></path><path d="M653.187122 393.365854h-50.675512v-134.868293a68.058537 68.058537 0 0 0-67.783805-67.783805h-135.617561V140.06322c0-11.938341-2.247805-23.102439-7.442732-33.542244-13.411902-29.795902-42.458537-50.650537-77.474341-50.650537a84.667317 84.667317 0 0 0-50.675512 17.133268c-20.105366 15.634732-33.517268 39.486439-33.517269 67.059513v50.650536h-134.119024C58.642732 190.713756 28.821854 221.283902 28.821854 258.522537v128.124878h50.675512c50.650537 0 90.91122 40.984976 90.911219 90.911219 0 50.675512-40.984976 90.91122-90.911219 90.91122H28.821854v128.874146a68.058537 68.058537 0 0 0 67.80878 67.80878H224.780488v-50.675512c0-34.266537 19.381073-64.062439 46.954146-79.722146 13.386927-7.442732 27.548098-11.913366 43.957073-11.913366 38.712195 0 70.755902 23.851707 84.167805 57.368976 4.49561 10.439805 6.718439 21.603902 6.718439 33.517268v50.675512h128.124878a68.033561 68.033561 0 0 0 67.808781-67.80878v-134.843317h50.675512c46.929171 0 84.167805-37.987902 84.167805-84.167805 0-46.204878-37.962927-84.217756-84.167805-84.217756z" fill="#F2F2F2" p-id="108508"></path><path d="M653.187122 393.365854h-50.675512v-134.868293a68.058537 68.058537 0 0 0-67.783805-67.783805h-135.617561V140.06322c0-11.938341-2.247805-23.102439-7.442732-33.542244-13.411902-29.795902-42.458537-50.650537-77.474341-50.650537a84.667317 84.667317 0 0 0-50.675512 17.133268c-20.105366 15.634732-33.517268 39.486439-33.517269 67.059513v50.650536h-134.119024C58.642732 190.713756 28.821854 221.283902 28.821854 258.522537v128.124878h50.675512c50.650537 0 90.91122 40.984976 90.911219 90.911219 0 50.675512-40.984976 90.91122-90.911219 90.91122H28.821854v128.874146a68.058537 68.058537 0 0 0 67.80878 67.80878H224.780488v-50.675512c0-34.266537 19.381073-64.062439 46.954146-79.722146 13.386927-7.442732 27.548098-11.913366 43.957073-11.913366 38.712195 0 70.755902 23.851707 84.167805 57.368976 4.49561 10.439805 6.718439 21.603902 6.718439 33.517268v50.675512h128.124878a68.033561 68.033561 0 0 0 67.808781-67.80878v-134.843317h50.675512c46.929171 0 84.167805-37.987902 84.167805-84.167805 0-46.204878-37.962927-84.217756-84.167805-84.217756z" fill="#D7DBE1" p-id="108509"></path><path d="M910.985366 577.061463h-50.675512v-134.868292a68.033561 68.033561 0 0 0-67.783805-67.783805h-135.617561v-50.650537c0-11.938341-2.222829-23.102439-7.442732-33.542244-13.411902-29.795902-42.458537-50.650537-77.474341-50.650536a84.667317 84.667317 0 0 0-50.675513 17.133268c-20.105366 15.634732-33.517268 39.461463-33.517268 67.059512v50.650537h-134.119024c-37.238634 0-67.034537 30.545171-67.034537 67.80878v128.124878h50.650537c50.675512 0 90.91122 40.984976 90.911219 90.91122 0 50.675512-40.984976 90.91122-90.911219 90.911219h-50.650537v128.874147a68.033561 68.033561 0 0 0 67.783805 67.80878h128.149854v-50.675512c0-34.266537 19.381073-64.062439 46.954146-79.722146 13.386927-7.442732 27.548098-11.913366 43.957073-11.913366 38.712195 0 70.755902 23.851707 84.167805 57.368975 4.49561 10.439805 6.718439 21.603902 6.718439 33.517269v50.675512h128.124878a68.033561 68.033561 0 0 0 67.808781-67.808781v-134.868292h50.675512c46.954146 0 84.167805-37.962927 84.167805-84.167805s-37.962927-84.167805-84.167805-84.167805z" fill="#F1B830" p-id="108510"></path><path d="M910.985366 577.061463h-50.675512v-134.868292a68.033561 68.033561 0 0 0-67.783805-67.783805h-135.617561v-50.650537c0-11.938341-2.222829-23.102439-7.442732-33.542244-13.411902-29.795902-42.458537-50.650537-77.474341-50.650536a84.667317 84.667317 0 0 0-50.675513 17.133268c-20.105366 15.634732-33.517268 39.461463-33.517268 67.059512v50.650537h-134.119024c-37.238634 0-67.034537 30.545171-67.034537 67.80878v128.124878h50.650537c50.675512 0 90.91122 40.984976 90.911219 90.91122 0 50.675512-40.984976 90.91122-90.911219 90.911219h-50.650537v128.874147a68.033561 68.033561 0 0 0 67.783805 67.80878h128.149854v-50.675512c0-34.266537 19.381073-64.062439 46.954146-79.722146 13.386927-7.442732 27.548098-11.913366 43.957073-11.913366 38.712195 0 70.755902 23.851707 84.167805 57.368975 4.49561 10.439805 6.718439 21.603902 6.718439 33.517269v50.675512h128.124878a68.033561 68.033561 0 0 0 67.808781-67.808781v-134.868292h50.675512c46.954146 0 84.167805-37.962927 84.167805-84.167805s-37.962927-84.167805-84.167805-84.167805z" fill="#F1B830" p-id="108511"></path></svg>