<svg t="1763101944091" class="icon" viewBox="0 0 1024 1024" version="1.1" xmlns="http://www.w3.org/2000/svg" p-id="31642" width="200" height="200"><path d="M733.866667 553.813333c-53.333333 0-96.853333 43.093333-96.853334 96.853334v0.426666c-0.426667 53.333333 43.093333 96.853333 96.426667 97.28h0.426667c53.333333 0 96.426667-43.093333 96.426666-96.426666v-0.853334c0.426667-53.333333-42.24-96.853333-95.573333-97.28h-0.853333z m0 129.706667c-17.92 0-32.426667-14.08-32.426667-32v-0.853333c0-17.92 14.08-32.426667 32.426667-32.426667 17.92 0 32 14.08 32 32.426667 0 18.773333-14.08 32.853333-32 32.853333z"></path><path d="M959.146667 648.533333c-0.426667-3.413333-0.426667-6.826667-0.853334-10.24-0.853333-10.666667-2.133333-21.333333-4.266666-32-2.986667-20.48-17.493333-37.546667-38.826667-42.24l-3.413333-0.853333c-5.546667-1.706667-9.813333-5.546667-14.506667-13.653333-3.413333-6.4-4.693333-13.653333-2.56-20.906667 7.253333-19.626667 1.28-42.24-14.506667-56.32-20.906667-20.053333-45.653333-35.413333-72.96-45.226667-17.92-8.106667-39.68-2.133333-54.613333 13.226667l-2.986667 3.413333c-2.986667 4.266667-8.96 6.826667-17.493333 6.826667-5.973333 0-12.373333-2.986667-20.48-11.093333-15.786667-16.213333-35.413333-19.2-53.76-12.8l-2.133333 0.853333c-26.453333 11.52-49.493333 25.6-69.546667 42.666667-16.64 13.226667-23.04 34.986667-17.066667 55.04 2.133333 10.24 1.28 18.346667-2.986666 26.026666-2.56 4.693333-8.106667 8.96-15.786667 11.52-5.12 0.853333-10.24 3.413333-14.506667 6.4-10.666667 6.826667-17.92 16.64-22.613333 29.013334l-2.133333 5.546666v4.266667c-2.56 14.506667-3.413333 27.733333-3.413334 42.24 0 15.786667 1.28 31.146667 4.266667 43.946667 2.986667 20.48 17.493333 37.546667 38.826667 42.24l3.413333 0.853333c5.546667 1.706667 9.813333 5.973333 14.506667 13.653333 3.413333 6.4 4.693333 14.506667 2.56 20.906667-7.253333 19.626667-1.28 42.24 14.506666 56.32 21.333333 20.48 46.506667 35.84 74.24 45.226667l5.973334 1.706666c2.56 0.426667 5.12 0.853333 8.533333 0.853334h2.56c13.226667 0 26.453333-5.546667 37.12-15.36l2.986667-2.986667c4.693333-5.12 11.52-8.533333 18.346666-8.106667 5.973333 0 12.373333 2.986667 20.48 11.093334 9.386667 9.813333 21.76 16.213333 36.266667 16.213333 2.56 0 4.266667 0 6.4-0.426667 4.693333-0.426667 8.96-1.706667 13.226667-3.413333 24.746667-10.24 47.786667-24.32 67.84-41.813333 17.493333-12.373333 23.893333-35.84 17.92-55.893334-2.56-8.96-1.28-18.346667 2.986666-26.026666 2.56-4.693333 8.106667-8.96 15.786667-11.52 5.12-0.853333 10.24-3.413333 14.506667-6.4 10.666667-6.826667 17.92-16.64 22.613333-29.013334l2.133333-5.546666v-4.693334c2.56-14.506667 3.413333-27.733333 3.413334-42.24v-1.28z m-66.56 29.866667c-21.333333 8.106667-38.826667 22.613333-49.066667 41.386667-10.666667 20.48-14.506667 43.946667-9.813333 66.56-11.093333 8.96-23.893333 17.066667-37.973334 23.893333-17.493333-15.786667-37.973333-24.746667-60.16-24.746667-23.466667 0-45.226667 8.96-61.44 24.32-14.506667-5.973333-27.733333-14.08-39.253333-24.32 5.12-22.613333 1.28-46.506667-10.24-66.986666-12.8-21.333333-29.44-35.84-50.773333-42.666667-1.28-8.533333-1.706667-16.64-1.706667-25.173333 0-9.386667 0.426667-17.92 2.133333-26.88 21.333333-8.106667 39.253333-22.613333 49.066667-41.386667 10.666667-20.48 14.506667-43.946667 9.813333-66.56 11.52-9.386667 24.746667-17.493333 39.253334-24.32 17.493333 15.786667 37.546667 24.32 59.733333 24.32 23.893333 0 45.653333-8.106667 61.44-23.893333 14.506667 6.4 26.88 14.506667 37.546667 23.893333-5.12 22.613333-1.28 46.506667 10.24 66.56 12.8 21.76 29.44 35.84 50.346666 42.666667 0.853333 5.12 1.28 10.666667 2.133334 18.346666l0.426666 8.533334c0.426667 9.386667 0 17.493333-1.706666 26.453333zM705.706667 264.533333H269.226667c-26.453333 0-48.213333-21.76-48.213334-48.213333 0-26.453333 21.76-48.213333 48.213334-48.213333h436.48c26.453333 0 48.213333 21.76 48.213333 48.213333 0.426667 26.453333-21.333333 48.213333-48.213333 48.213333zM401.066667 763.733333H269.226667c-26.453333 0-48.213333-21.76-48.213334-48.213333 0-26.453333 21.76-48.213333 48.213334-48.213333H401.066667c26.453333 0 48.213333 21.76 48.213333 48.213333 0 26.453333-21.76 48.213333-48.213333 48.213333zM446.72 514.133333H269.226667c-26.453333 0-48.213333-21.76-48.213334-48.213333 0-26.453333 21.76-48.213333 48.213334-48.213333h177.066666c26.453333 0 48.213333 21.76 48.213334 48.213333 0.426667 26.453333-21.333333 48.213333-47.786667 48.213333zM122.88 264.533333c-26.453333 0-48.213333-21.76-48.213333-48.213333 0-26.453333 21.76-48.213333 48.213333-48.213333 26.453333 0 48.213333 21.76 48.213333 48.213333C171.093333 242.773333 149.333333 264.533333 122.88 264.533333zM122.88 514.133333c-26.453333 0-48.213333-21.76-48.213333-48.213333 0-26.453333 21.76-48.213333 48.213333-48.213333 26.453333 0 48.213333 21.76 48.213333 48.213333 0 26.453333-21.76 48.213333-48.213333 48.213333zM122.88 763.733333c-26.453333 0-48.213333-21.76-48.213333-48.213333 0-26.453333 21.76-48.213333 48.213333-48.213333 26.453333 0 48.213333 21.76 48.213333 48.213333 0 26.453333-21.76 48.213333-48.213333 48.213333z"></path></svg>