<svg t="1763104602955" class="icon" viewBox="0 0 1264 1024" version="1.1" xmlns="http://www.w3.org/2000/svg" p-id="94721" width="200" height="200"><path d="M574.17216 51.2L56.97024 309.80096l517.1968 258.59072L1091.328 309.80096 574.17216 51.2z"></path><path d="M958.22848 473.3184l60.82048 30.40256-444.88192 222.46912-444.92288-222.46912 60.83584-30.40256-36.15232-18.07872-96.96256 48.4864 517.1968 258.62144 517.1456-258.62144-96.95232-48.4864-36.12672 18.07872z"></path><path d="M958.22848 634.94144l60.82048 30.4128-444.88192 222.4384-444.92288-222.4384 60.83584-30.4128-36.15232-18.06848-96.96256 48.4864 517.1968 258.60096 517.1456-258.60096-96.94208-48.4864-36.13696 18.06848z"></path><path d="M1218.94912 758.86592c0-3.28704-1.2544-6.56896-3.7632-9.07776s-5.7856-3.75808-9.0624-3.75808h-19.60448c-8.12544 0-16.72192-6.33856-19.13344-14.09536l-10.16832-24.69376c-3.8144-7.1424-2.24256-17.68448 3.46624-23.424l13.91616-13.89056a12.81536 12.81536 0 0 0 3.7632-9.07776c0-3.54816-1.42336-6.7584-3.7632-9.088l-23.60832-23.57248a12.8256 12.8256 0 0 0-18.14528 0l-13.91616 13.91104c-5.7088 5.72928-16.28672 7.30624-23.43936 3.46624l-24.67328-10.15296c-7.71584-2.40128-14.08512-11.008-14.08512-19.1232v-19.6352c0-3.2768-1.24928-6.55872-3.75808-9.06752s-5.7856-3.7632-9.06752-3.7632h-33.34656c-3.29728 0-6.56896 1.2544-9.07776 3.7632s-3.75808 5.79584-3.75808 9.06752v19.6352c0 8.1152-6.31296 16.72704-14.06464 19.1232l-24.69376 10.15296c-7.168 3.84-17.69472 2.28352-23.40352-3.46624l-13.97248-13.9008c-2.31936-2.31936-5.53984-3.74272-9.07776-3.74272s-6.73792 1.43872-9.0624 3.75296l-23.55712 23.55712a12.8512 12.8512 0 0 0-3.7632 9.06752c0 3.53792 1.43872 6.74816 3.7632 9.06752l13.89056 13.9264c5.74976 5.74464 7.32672 16.2816 3.46624 23.41888l-10.1632 24.71424c-2.39616 7.75168-10.99264 14.09024-19.11296 14.09024l-19.62496-0.01536c-3.29728 0-6.57408 1.24928-9.07776 3.75808a12.8 12.8 0 0 0-3.7632 9.07776v33.34144a12.8 12.8 0 0 0 12.84096 12.8256h19.62496c8.12032 0.0256 16.70144 6.35904 19.09248 14.09536l10.18368 24.69376c3.81952 7.15776 2.26304 17.73056-3.46624 23.43936l-13.93152 13.89568a12.83072 12.83072 0 0 0 0 18.16576l23.60832 23.57248c2.32448 2.31936 5.52448 3.75296 9.06752 3.75296s6.7584-1.4336 9.07776-3.75296l13.93152-13.90592c5.71392-5.71904 16.23552-7.29088 23.36256-3.41504l24.7552 10.15808c7.75168 2.4064 14.06464 10.99264 14.06464 19.1232v19.55328a12.81536 12.81536 0 0 0 12.83584 12.83072h33.3312a12.81024 12.81024 0 0 0 12.83584-12.83072v-19.55328c0-8.13056 6.36928-16.72192 14.08512-19.1232l24.71424-10.15808c7.14752-3.87584 17.71008-2.304 23.45984 3.41504l13.83424 13.89568a12.77952 12.77952 0 0 0 9.08288 3.77856 12.74368 12.74368 0 0 0 9.07776-3.74784l23.60832-23.59296c2.33984-2.3296 3.7632-5.54496 3.7632-9.088s-1.44384-6.7584-3.7632-9.07776l-13.91616-13.89568c-5.7088-5.7088-7.28064-16.2816-3.46624-23.43936l10.16832-24.69376c2.41664-7.73632 11.04384-14.06976 19.13344-14.06976h19.60448c3.2768 0 6.54848-1.2544 9.0624-3.7632s3.7632-5.79584 3.7632-9.07776v-33.3568h0.01536z m-117.9392 16.64512c0 40.73472-33.00864 73.72288-73.73312 73.72288-40.73984 0-73.74848-32.98816-73.74848-73.72288 0-40.72448 33.00864-73.728 73.74848-73.728 40.72448-0.00512 73.73312 33.00352 73.73312 73.728z"></path></svg>