<svg t="1763102471264" class="icon" viewBox="0 0 1024 1024" version="1.1" xmlns="http://www.w3.org/2000/svg" p-id="40782" width="200" height="200"><path d="M718 662.06l71.875 69.409c15.097 14.578 39.153 14.158 53.732-0.938l38.9-40.283c14.58-15.097 14.16-39.154-0.937-53.732L735.88 495.824C758.785 458.65 772 414.869 772 368c0-57.98-20.223-111.237-54-153.102V124c0-20.987 17.013-38 38-38h144c20.987 0 38 17.013 38 38v674c0 20.987-17.013 38-38 38H756c-20.987 0-38-17.013-38-38V662.06z m-96-68.824V798c0 20.987-17.013 38-38 38H440c-20.987 0-38-17.013-38-38V576.992C438.778 599.213 481.896 612 528 612c33.314 0 65.07-6.677 94-18.765zM124 449h144c20.987 0 38 17.013 38 38v311c0 20.987-17.013 38-38 38H124c-20.987 0-38-17.013-38-38V487c0-20.987 17.013-38 38-38z m-11 417h798c14.912 0 27 12.088 27 27v18c0 14.912-12.088 27-27 27H113c-14.912 0-27-12.088-27-27v-18c0-14.912 12.088-27 27-27z m584.418-365.612l0.022 0.02 146.026 141.016c10.727 10.359 11.025 27.451 0.666 38.178L831.63 692.55c-10.359 10.727-27.452 11.025-38.178 0.667L647.425 552.2a27.18 27.18 0 0 1-2.998-3.422C610.873 570.433 570.904 583 528 583c-118.741 0-215-96.259-215-215s96.259-215 215-215 215 96.259 215 215c0 49.934-17.023 95.892-45.582 132.388zM528 523c85.604 0 155-69.396 155-155s-69.396-155-155-155-155 69.396-155 155 69.396 155 155 155z" p-id="40783"></path></svg>