<svg t="1763103858058" class="icon" viewBox="0 0 1024 1024" version="1.1" xmlns="http://www.w3.org/2000/svg" p-id="54893" width="200" height="200"><path d="M846.158 359.939l23.958 35.212 0.983 0.487c9.452-15.16 18.91-30.322 28.362-45.481 14.724-22.056 30.898-39.446 39.613-68.466 16.891-56.236-23.199-97.808-76.294-96.834-3.746 0.649-7.498 1.3-11.245 1.955-12.76 3.768-25.784 11.753-33.257 21.03-6.103 7.58-12.236 15.723-16.141 25.43-9.97 24.813-2.279 53.54 8.314 70.913 11.901 18.581 23.804 37.172 35.707 55.754zM834.904 249.9c5.284-16.953 16.588-20.39 32.768-26.895 50.835-0.747 51.753 71.171 4.89 78.248-23.942 3.614-45.322-26.734-37.658-51.353z m0 0M304.77 660.71c29.548-41.362 57.494-73.959 74.825-129.114 38.767-123.383-39.783-224.583-160.409-222.517-9.43 3.687-23.387 2.48-32.767 5.378-28.128 8.685-54.878 25.396-71.402 45.97-14.434 17.967-27.493 35.602-36.682 59.177-21.509 55.19-5.778 113.481 18.095 152.586 27.677 45.331 55.784 89.57 86.075 132.533 15.973 23.638 31.951 47.281 47.925 70.916 0.491 0.325 0.983 0.653 1.469 0.977l29.835-48.417c14.25-22.882 27.569-45.847 43.035-67.488z m-153.074-206.87c7.899-25.385 26.635-45.179 50.371-54.776 7.504-3.034 16.567-2.185 24.941-5.382 55.79-0.316 103.017 56.309 79.715 116.398-11.54 29.754-33.702 50.533-69.448 56.243-54.612 8.723-102.615-57.777-85.58-112.484z m0 0M879.132 613.976c-40.918-26.733-81.841-53.474-122.755-80.207-14.02-9.615-28.043-19.234-42.058-28.85-27.71-15.159-55.429-30.326-83.139-45.484-14.872-8.685-32.276-15.974-44.016-27.877l-0.976-0.486c55.402-11.489 113.1-12.201 171.172-22.01 29.826-3.421 59.666-6.848 89.493-10.271v-0.486c-4.561-6.215-17.582-23.763-23.963-26.9l-22.496 1.96c-27.056 1.626-54.126 3.26-81.183 4.89-21.1 3.278-42.724 0.448-65.044 3.909l-188.29 17.118c28.364 21.842 56.735 43.693 85.098 65.534 30.407 20.302 63.034 36.289 92.43 57.216 37.49 29.179 74.99 58.366 112.483 87.543 0.328 0.486 0.653 0.977 0.981 1.468L485.927 628.16c-18.253 0.816-36.519 1.63-54.771 2.445-22.256 3.461-42.907 4.366-63.58 8.314-9.943 1.468-19.886 2.932-29.83 4.399l-88.52 149.164c-0.325 0.486-0.65 0.976-0.98 1.468 100.244-22.107 203.847-38.69 305.66-61.135 55.1-9.776 110.208-19.562 165.305-29.344l234.258-40.104v-0.486c-24.78-16.302-49.563-32.604-74.337-48.906z m9.083 5.65" p-id="54894"></path></svg>