<svg t="1758619912626" class="icon" viewBox="0 0 1024 1024" version="1.1" xmlns="http://www.w3.org/2000/svg" p-id="13741" width="200" height="200"><path d="M532.886439 534.015436l345.472988-270.394708c3.951488-3.38699 6.209482-7.902977 6.209481-13.547961V168.220507c0-7.338479-7.902977-11.289967-13.54796-6.77398L512 443.131202 152.979052 162.011025c-5.644983-4.515987-13.54796-0.564498-13.54796 6.773981v81.85226c0 5.080485 2.257993 10.16097 6.209481 13.54796L491.113561 534.015436c12.418964 9.596472 29.353914 9.596472 41.772878 0z m0 0" p-id="13742"></path><path d="M532.886439 855.779493l345.472988-270.394708c3.951488-3.38699 6.209482-7.902977 6.209481-13.54796V489.984564c0-7.338479-7.902977-11.289967-13.54796-6.77398l-359.020948 281.120177-359.020948-280.555678c-5.644983-4.515987-13.54796-0.564498-13.54796 6.77398v81.85226c0 5.080485 2.257993 10.16097 6.209481 13.54796L491.113561 855.779493c12.418964 10.16097 29.353914 10.16097 41.772878 0z m0 0" p-id="13743"></path></svg>