<svg viewBox="0 0 1024 1024" version="1.1"  xmlns="http://www.w3.org/2000/svg"><path stroke="#000" stroke-width="50" d="M851.424 724.768q0 22.848-16.032 38.848l-77.728 77.728q-16.032 16.032-38.848 16.032t-38.848-16.032l-168-168-168 168q-16.032 16.032-38.848 16.032t-38.848-16.032l-77.728-77.728q-16.032-16.032-16.032-38.848t16.032-38.848l168-168-168-168q-16.032-16.032-16.032-38.848t16.032-38.848l77.728-77.728q16.032-16.032 38.848-16.032t38.848 16.032l168 168 168-168q16.032-16.032 38.848-16.032t38.848 16.032l77.728 77.728q16.032 16.032 16.032 38.848t-16.032 38.848l-168 168 168 168q16.032 16.032 16.032 38.848z"></path></svg>