<svg t="1763371766001" class="icon" viewBox="0 0 1024 1024" version="1.1" xmlns="http://www.w3.org/2000/svg" p-id="42051" width="200" height="200"><path d="M188.970667 158.805333l663.722666 663.722667a42.666667 42.666667 0 0 1-60.330666 60.330667L338.773333 429.226667a192 192 0 0 0 256.085334 256.085333l97.621333 97.621333c-58.624 18.474667-121.344 27.733333-180.437333 27.733334-193.92 0-426.666667-99.541333-426.666667-298.666667 0-84.906667 52.266667-156.458667 127.914667-208.213333L128.64 219.178667a42.666667 42.666667 0 1 1 60.330667-60.330667zM512 213.333333c193.92 0 426.666667 119.466667 426.666667 298.666667 0 92.416-50.133333 163.413333-123.264 212.906667l-130.133334-130.133334a192 192 0 0 0-256.128-256.042666l-94.72-94.805334A554.794667 554.794667 0 0 1 512 213.333333z m-105.6 283.605334l120.661333 120.661333a106.666667 106.666667 0 0 1-120.661333-120.661333zM512 405.333333a106.666667 106.666667 0 0 1 105.6 121.770667l-120.704-120.746667c4.949333-0.682667 9.984-1.024 15.104-1.024z"></path></svg>