<svg t="1763627348988" class="icon" viewBox="0 0 1024 1024" version="1.1" xmlns="http://www.w3.org/2000/svg" p-id="10471" width="200" height="200"><path d="M85.1 322.1L492.7 507c11.9 5.4 25.4 5.4 37.3 0l407.6-184.9c29-13.1 29-56.9 0-70.1L530 67.2c-11.8-5.4-25.4-5.4-37.3 0L85.1 252.1c-29 13.1-29 56.9 0 70z m852.5 154.5l-101.6-46-282.9 128.2c-13.2 6-27.3 9-41.8 9-14.5 0-28.5-3-41.8-9L186.7 430.6l-101.6 46c-29 13.1-29 56.9 0 70l407.6 184.8c11.9 5.4 25.4 5.4 37.3 0l407.7-184.8c28.9-13.1 28.9-56.8-0.1-70z m0 223.7l-101.3-45.9-283.2 128.4c-13.2 6-27.3 9-41.8 9-14.5 0-28.5-3-41.8-9L186.3 654.4 85.1 700.3c-29 13.1-29 56.9 0 70l407.6 184.8c11.9 5.4 25.4 5.4 37.3 0l407.7-184.8c28.9-13.1 28.9-56.9-0.1-70z" p-id="10472"></path></svg>