<?xml version="1.0" encoding="UTF-8"?>
<svg id="_图层_1" data-name="图层 1" xmlns="http://www.w3.org/2000/svg" version="1.1" viewBox="0 0 1024 1024">
  <path d="M402.44,357c0,7.53.07,13.82.18,18.55l-289.42,209.03c-23.63,17.12-37.64,44.51-37.68,73.69v17.39c0,10.04,8.15,18.18,18.2,18.18,1.26,0,2.51-.13,3.74-.39l325.72-68.56,15.31,153.13-103.04,103.01c-3.4,3.43-5.3,8.05-5.31,12.88v36.37c0,10.04,8.16,18.18,18.2,18.17,2.17,0,4.32-.39,6.35-1.15l127.85-47.94,12.22,36.66c3.2,9.52,13.51,14.65,23.03,11.45,5.4-1.81,9.64-6.05,11.45-11.45l12.22-36.66,127.81,47.94c9.37,3.56,19.85-1.16,23.41-10.53.79-2.07,1.19-4.27,1.18-6.49v-36.37c0-4.84-1.93-9.46-5.31-12.88l-103.04-103.04,15.31-153.13,325.72,68.56c9.83,2.07,19.47-4.22,21.54-14.05.26-1.22.39-2.46.39-3.7v-17.39c0-29.1-14.08-56.67-37.68-73.69l-289.42-209.03c.07-4.73.18-11.02.18-18.55,0-105.12-14.22-281.49-109.56-281.49s-109.56,176.37-109.56,281.49h0ZM566.01,234.79c2.44,9.7-3.45,19.54-13.15,21.98-.03,0-.06.01-.09.02-9.74,2.43-19.61-3.5-22.04-13.24-.04-.07-6.47-22.55-18.73-22.55-12.26,0-18.7,22.48-18.77,22.7-2.55,9.68-12.41,15.5-22.11,13.06-9.68-2.43-15.57-12.25-13.14-21.93,0-.01,0-.03,0-.04,4.66-18.62,21.28-50.16,54.01-50.16,32.74,0,49.36,31.54,54.01,50.16h0Z"/>
</svg>