<svg t="1763372095310" class="icon" viewBox="0 0 1024 1024" version="1.1" xmlns="http://www.w3.org/2000/svg" p-id="48218" width="200" height="200"><path d="M675.410891 5.10659c49.533926 16.341089 60.768425 32.171519 60.768425 85.790718V326.821782h-60.257766V137.36728H140.240223v634.749181h132.771349c32.171519 0 64.853697 0.510659 97.025216-0.510659 14.809112-0.510659 21.958339 3.574613 27.575588 18.383725 14.809112 36.767451 32.682178 72.002924 50.044586 109.281033H347.057132c-62.811061 0-126.132782-2.042636-188.943843 0.51066-39.320746 1.531977-64.853697-12.766476-80.684128-47.491291v-796.628094C89.174319 28.086247 108.579362 10.213181 138.708245 4.595931 317.949567 5.10659 496.680229 5.10659 675.410891 5.10659z" p-id="48219"></path><path d="M139.218905 5.10659c-30.128883 5.617249-49.533926 23.490316-61.279085 51.065904V5.10659h61.279085z" p-id="48220"></path><path d="M734.647339 861.992451c-174.134731 95.49324-348.269462-42.895359-357.971983-217.03009H199.98733v-62.300402h181.794616c8.170545-22.468998 15.319771-41.874041 23.490316-64.853698H199.476671V454.9972h25.532951c55.151176 0 110.813011-1.531977 165.964187 0.510659 38.299428 1.531977 69.960288-6.638567 103.153125-29.107565 97.025217-66.385675 228.775248-36.256791 301.28883 64.853698 59.236448 82.726764 68.93897 171.581436 28.086247 265.032039-6.638567 14.809112-5.617249 23.490316 5.61725 35.235473 41.363382 42.895359 81.705446 86.301377 122.047509 130.218054 23.490316 25.532952 22.468998 36.767451 0 63.32172-43.406018 51.576563-57.193812 52.087222-102.642466 0.510659-36.767451-42.895359-76.088196-82.726764-113.876965-123.579486z m42.3847-222.647339c-1.021318-7.149226-2.042636-20.426361-5.10659-33.703497-17.873066-82.726764-102.642466-149.112438-177.198685-138.899257-100.089171 13.787794-164.942868 108.770374-141.452553 209.370204 17.873066 78.130832 87.833354 139.920576 157.793642 140.431235 92.429285 1.021318 165.964186-74.556219 165.964186-177.198685zM199.476671 200.178342h414.144477v61.279084H199.476671v-61.279084zM617.195761 335.502986c-6.127908 4.085272-12.255817 8.170545-18.383725 11.745158-23.490316 12.255817-46.469972 24.511634-69.960288 35.746132-7.149226 3.574613-15.83043 7.659886-23.490315 7.659886-98.046535 0.510659-195.58241 0.510659-293.628946 0-3.063954 0-6.638567-1.021318-11.234498-1.531977V329.375078h413.633818c0.510659 1.531977 1.531977 3.574613 3.063954 6.127908z" p-id="48221"></path></svg>