<?xml version="1.0" encoding="UTF-8"?>
<svg id="_图层_1" data-name="图层 1" xmlns="http://www.w3.org/2000/svg" viewBox="0 0 48 48">
  <!-- <defs>
    <style>
      .cls-1 {
        fill: #7666f8;
      }

      .cls-2 {
        fill: #8574fa;
      }

      .cls-3 {
        fill: #ae9bff;
      }

      .cls-4 {
        fill: #9e8bfe;
      }
    </style>
  </defs> -->
  <g>
    <path class="cls-1" d="M31.01,33.81h0c.48-.07,.98-.18,1.48-.33,.14-.04,.29-.15,.38-.28,0,0,.13-.15,.1-.26-.02-.09-.22-.21-.22-.21-.12-.07-.23-.09-.36-.1-.25,0-.48,.06-.72,.12-.26,.07-.52,.13-.78,.19-.65,.15-1.31,.31-1.9,.61-.68,.35-1.27,.52-1.99,.52l-.99-.03q-.86,0-1.01-.84c-.46-2.5-.86-4.77-1.26-7.08-.03-.18,.02-.42,.13-.62,.43-.8,.89-1.58,1.28-2.23,.27-.45,.14-.76-.14-1.09-.92-1.08-1.96-1.48-3.19-1.23-.08,.02-.18,.02-.28,0-.53-.08-.79,.24-.97,.56-.99,1.77-1.99,3.54-2.99,5.31-.95,1.68-1.9,3.36-2.84,5.04-.07,.12-.12,.22-.17,.3-.32,.55-.32,.61,.14,1.09,.07,.08,.16,.17,.25,.27,.08,.09,.17,.18,.26,.27,.56,.59,1.1,1.15,.93,2.08-.03,.17,0,.32,.1,.43,.12,.14,.31,.22,.58,.21,.22,0,.43,0,.68,0h.17c-.26,.9-.14,1.69,.35,2.39l.02,.03c.12,.17,.27,.38,.48,.41,.12,.01,.24-.02,.35-.12,.14-.12,.08-.38,.02-.67-.01-.05-.02-.09-.03-.13-.03-.17-.08-.33-.12-.5-.08-.3-.16-.58-.17-.86,0-.17,.04-.3,.14-.4,.1-.1,.26-.16,.46-.15,.91,.02,1.89,.01,3.18-.01,.18,0,.28,.02,.34,.08,.05,.05,.08,.16,.07,.32-.03,.91-.03,1.61,0,2.27,.01,.18,.04,.38,.15,.53,0,0,.14,.17,.26,.18,.22,0,.38-.19,.38-.19,.11-.15,.13-.36,.14-.54,.03-.48,.03-.96,.02-1.43,0-.19,0-.38,0-.57q0-.62,.6-.63c.25,0,.52,0,.78,0,.66,0,1.35,0,2.02-.02,.23,0,.61-.16,.7-.38,.54-1.34,1.58-2.11,3.19-2.34Zm-7.83-11.19l.31-.55c.05,.04,.1,.08,.15,.12,.21,.17,.38,.32,.54,.48,.05,.05,.08,.18,.07,.21-.45,.83-.91,1.67-1.37,2.48l-.27,.49q-.81-.81-.23-1.82c.27-.47,.53-.93,.8-1.42Zm-1.51,4.9c-.31,.56-.62,1.11-.94,1.7l-.35,.62-.13-.15c-.22-.25-.43-.48-.62-.71-.01-.02,0-.09,0-.11,.46-.82,.93-1.64,1.41-2.47l.3-.52s0,0,0,0c.02,.01,.04,.02,.05,.03q.78,.71,.28,1.61Zm-1.37-3.65c.35-.64,.7-1.3,1.14-1.88,.09-.12,.41-.13,.74-.15,.12,0,.25-.01,.38-.02-.13,.23-.25,.46-.36,.68-.36,.7-.71,1.35-1.13,1.93-.09,.13-.44,.14-.75,.14-.13,0-.27,0-.39,.02v-.02c.12-.23,.25-.47,.37-.7Zm-2.19,3.88c.38-.71,.78-1.45,1.25-2.11,.1-.13,.44-.15,.74-.17,.13,0,.26-.02,.38-.03l.02,.05-.3,.54c-.19,.34-.38,.68-.58,1.02-.17,.29-.34,.59-.51,.88-.38,.64-.6,.74-1.39,.53,.13-.23,.25-.47,.38-.7Zm-2.47,4.57s-.06,0-.1,0l.08-.15c.12-.22,.22-.41,.33-.6,.12-.21,.23-.41,.35-.62,.16-.28,.31-.55,.47-.83,.42-.75,.49-.84,1.45-.65l-.31,.55c-.44,.77-.85,1.5-1.29,2.23-.04,.04-.26,.05-.36,.06-.05,0-.09,0-.14,0-.15,.01-.3,.01-.49,0Zm.35,1c.77-.16,1.22,.01,1.83,.7-.97,.17-1.34,.03-1.83-.7Zm2.44-.03c-.05-.04-.1-.09-.15-.13-.22-.18-.42-.35-.6-.53-.05-.05-.08-.22-.05-.26,.38-.7,.79-1.4,1.19-2.08l.28-.48q.85,.77,.29,1.77l-.96,1.71Zm.65,.72l3.91-6.98,1.2,6.98h-5.12Zm7.38,1.64h-4.94c-.31,0-.53,0-.58-.06-.05-.06-.03-.27,0-.56h6.4c-.17,.62-.22,.62-.88,.62Z"/>
    <path class="cls-1" d="M30.97,34.49h0c-1.5,0-2.72,1.23-2.72,2.74,0,1.44,1.29,2.71,2.76,2.72h0c.69,0,1.34-.28,1.85-.78,.52-.52,.81-1.23,.81-1.94,0-1.53-1.19-2.73-2.69-2.73Zm.5,3.27c-.17,.14-.38,.2-.61,.18-.4-.04-.69-.4-.66-.8,.03-.4,.42-.75,.83-.71,.19,.01,.38,.12,.53,.28,.14,.16,.21,.36,.19,.54-.02,.2-.11,.39-.27,.52Z"/>
  </g>
  <g>
    <path class="cls-3" d="M27.86,12.11c-.17,.3-.34,.59-.51,.88-.38,.66-.75,1.29-1.08,1.94-.36,.72-.79,1.42-1.56,1.78,.79,.59,1.61,1.15,2.49,1.62-.1-.69,.04-1.33,.47-2.02,.46-.74,.86-1.48,1.3-2.26,.18-.33,.36-.66,.55-.99l.06-.11-1.66-.94-.06,.11Z"/>
    <path class="cls-3" d="M31.41,8.11c-.14-.09-.57-.06-.72,.06,0,0-1.43,1.57-1.81,2.16l1.74,.98,.4-.83c.31-.66,.5-1.33,.56-1.84,.02-.16-.03-.44-.17-.53Z"/>
    <path class="cls-3" d="M28.16,11.57l.11,.06c.12,.07,.23,.13,.35,.19,.25,.14,.93,.54,1.16,.68l.52-.78-1.65-.96-.48,.81Z"/>
  </g>
  <g>
    <path class="cls-2" d="M21.82,20.96c-.08,.02-.18,.02-.28,0-.53-.08-.79,.24-.97,.56-.99,1.77-1.99,3.54-2.99,5.31-.52,.93-1.05,1.86-1.57,2.78,.24,.19,.49,.37,.74,.55,.01-.02,.03-.04,.04-.07,.42-.75,.49-.84,1.45-.65l-.31,.55c-.13,.24-.26,.47-.39,.7,.26,.17,.52,.32,.78,.48,.17-.3,.34-.6,.51-.89l.28-.48q.85,.77,.29,1.77l-.08,.15c.27,.14,.55,.27,.83,.4l2.86-5.09,1.1,6.4c.32,.07,.65,.11,.97,.17-.02-.1-.05-.22-.08-.38-.46-2.5-.86-4.77-1.26-7.08-.03-.18,.02-.42,.13-.62,.43-.8,.89-1.58,1.28-2.23,.27-.45,.14-.76-.14-1.09-.92-1.08-1.96-1.48-3.19-1.23Zm-1.51,2.91c.35-.64,.7-1.3,1.14-1.88,.09-.12,.41-.13,.74-.15,.12,0,.25-.01,.38-.02-.13,.23-.25,.46-.36,.68-.36,.7-.71,1.35-1.13,1.93-.09,.13-.44,.14-.75,.14-.13,0-.27,0-.39,.02v-.02c.12-.23,.25-.47,.37-.7Zm-1.18,4.05c-.38,.64-.6,.74-1.39,.53,.13-.23,.25-.47,.38-.7,.38-.71,.78-1.45,1.25-2.11,.1-.13,.44-.15,.74-.17,.13,0,.26-.02,.38-.03l.02,.05-.3,.54c-.19,.34-.38,.68-.58,1.02-.17,.29-.34,.59-.51,.88Zm2.55-.4c-.31,.56-.62,1.11-.94,1.7l-.35,.62-.13-.15c-.22-.25-.43-.48-.62-.71-.01-.02,0-.09,0-.11,.46-.82,.93-1.64,1.41-2.47l.3-.52s0,0,0,0c.02,.01,.04,.02,.05,.03q.78,.71,.28,1.61Zm1.21-2.15l-.27,.49q-.81-.81-.23-1.82c.27-.47,.53-.93,.8-1.42l.31-.55c.05,.04,.1,.08,.15,.12,.21,.17,.38,.32,.54,.48,.05,.05,.08,.18,.07,.21-.45,.83-.91,1.67-1.37,2.48Z"/>
    <path class="cls-2" d="M32.76,32.73c-.12-.07-.23-.09-.36-.1-.25,0-.48,.06-.72,.12-.26,.07-.52,.13-.78,.19-.65,.15-1.31,.31-1.9,.61-.27,.14-.52,.24-.78,.32,.04,0,.07,0,.11,0,1.48,0,2.91-.17,4.29-.47,.1-.05,.19-.13,.25-.21,0,0,.13-.15,.1-.26-.02-.09-.22-.21-.22-.21Z"/>
  </g>
  <g>
    <path class="cls-4" d="M21.82,20.96c-.08,.02-.18,.02-.28,0-.53-.08-.79,.24-.97,.56-.24,.42-.47,.84-.71,1.26,.24,.19,.49,.37,.74,.55,.26-.47,.53-.93,.85-1.35,.09-.12,.41-.13,.74-.15,.12,0,.25-.01,.38-.02-.13,.23-.25,.46-.36,.68-.26,.51-.53,.98-.81,1.42,.25,.17,.52,.32,.78,.48,.06-.11,.12-.22,.2-.36,.27-.47,.53-.93,.8-1.42l.31-.55c.05,.04,.1,.08,.15,.12,.21,.17,.38,.32,.54,.48,.05,.05,.08,.18,.07,.21-.37,.69-.76,1.38-1.14,2.06,.27,.14,.55,.27,.83,.4,.4-.74,.83-1.47,1.19-2.08,.27-.45,.14-.76-.14-1.09-.92-1.08-1.96-1.48-3.19-1.23Z"/>
    <path class="cls-4" d="M27.92,12l-.06,.11c-.17,.3-.34,.59-.51,.88-.38,.66-.75,1.29-1.08,1.94-.43,.85-.95,1.71-2.04,1.94-.05,0-.08,.03-.13,.06-.2,.11-.38,.23-.39,.41,0,.18,.17,.31,.36,.42,.87,.51,1.65,.96,2.38,1.36,.12,.07,.25,.1,.39,.14,.07,.02,.14,.04,.22,.06l.16,.05v-.17c0-.1,0-.2,0-.29,0-.19,.01-.34-.02-.5-.13-.72,.02-1.39,.46-2.1,.46-.74,.86-1.48,1.3-2.26,.18-.33,.36-.66,.55-.99l.06-.11-1.66-.94Z"/>
    <path class="cls-4" d="M24.72,20.2h0c.15,0,.29-.07,.38-.19,.18-.23,.21-.65,.08-1.16l-.03-.11-.12,.02c-.45,.09-.81,.31-.95,.57-.07,.14-.08,.28-.02,.42,.1,.23,.42,.45,.65,.45Z"/>
  </g>
</svg>