<svg t="1763096018037" class="icon" viewBox="0 0 2042 1024" version="1.1" xmlns="http://www.w3.org/2000/svg" p-id="31441" width="200" height="200"><path d="M1362.4 686.4l-67.2-78.4-15.2 15.2 76.8 89.6 5.6-26.4z" p-id="31442"></path><path d="M1305.6 565.6l16.8 16.8v0.8l-67.2 67.2h-0.8l-16.8-16.8v-0.8l68-67.2z" p-id="31443"></path><path d="M1627.2 754.4h-17.6v-76.8c1.6-59.2-29.6-54.4-29.6-54.4h-168c-28.8-168-132.8-176-132.8-176h-221.6v176H621.6l-2.4 150.4h-18.4c-11.2 0-10.4 16.8-10.4 16.8v56.8c0 12.8 11.2 11.2 11.2 11.2h92.8c3.2-60.8 53.6-109.6 116-109.6s112 48.8 116 109.6h373.6c3.2-60.8 53.6-109.6 116-109.6s112 48.8 115.2 109.6h96c20.8-3.2 20.8-24.8 20.8-24.8V784c0-32-20.8-29.6-20.8-29.6zM1169.6 712s12-70.4-49.6-89.6V503.2h142.4s91.2-6.4 95.2 208.8h-188z" p-id="31444"></path><path d="M810.4 753.6c-61.6 0-111.2 49.6-112 111.2 0 61.6 49.6 111.2 111.2 112 61.6 0 111.2-49.6 112-111.2 0.8-61.6-49.6-112-111.2-112z m0 164c-28.8 0-52.8-23.2-52.8-52.8 0-28.8 23.2-52.8 52.8-52.8s52.8 23.2 52.8 52.8-23.2 52.8-52.8 52.8z m604.8-164c-61.6 0-111.2 49.6-111.2 111.2s49.6 111.2 111.2 111.2 111.2-49.6 111.2-111.2c0.8-60.8-49.6-111.2-111.2-111.2z m0 164c-28.8 0-52.8-23.2-52.8-52.8s23.2-52.8 52.8-52.8 52.8 23.2 52.8 52.8-24 52.8-52.8 52.8zM626.4 497.6c-1.6-0.8 4-12 12-24l98.4-141.6c82.4-118.4 124-163.2 160.8-199.2-23.2 51.2-48.8 101.6-130.4 220L668.8 494.4c-8.8 12-16.8 21.6-18.4 20l-24-16.8z" p-id="31445"></path><path d="M732.8 461.6L768 379.2l12.8-17.6C882.4 216 947.2 88 970.4 40c10.4-21.6 5.6-24.8-10.4-7.2-36.8 38.4-134.4 144-236 289.6L712 340l-64.8 62.4c-10.4 9.6-24.8 28-39.2 48l-41.6 60c-23.2 33.6-38.4 64-34.4 66.4l77.6 53.6c4.8 3.2 27.2-21.6 50.4-55.2l41.6-60c13.6-20 25.6-40 31.2-53.6z m-147.2 59.2l-9.6-7.2 39.2-56.8 44-41.6-73.6 105.6z m8.8 5.6L732.8 328c82.4-118.4 165.6-208.8 198.4-243.2-20.8 43.2-76 152-158.4 269.6l-138.4 200-40-28z m58.4 40.8l-10.4-7.2 72.8-105.6-24 55.2-38.4 57.6z" p-id="31446"></path><path d="M712.8 399.2c-6.4-4.8 16-48.8 50.4-99.2 34.4-49.6 68.8-86.4 75.2-81.6s-16 48.8-50.4 99.2-68 86.4-75.2 81.6z m82.4-118.4c-2.4-1.6-12 9.6-23.2 24.8-10.4 15.2-17.6 28.8-15.2 30.4 2.4 1.6 12-9.6 23.2-24.8 10.4-15.2 16.8-28.8 15.2-30.4zM441.6 788c-2.4-1.6 5.6-16 16.8-32l82.4-118.4c11.2-16 22.4-28 24.8-26.4 2.4 1.6-5.6 16-16.8 32L466.4 761.6c-11.2 16-22.4 28-24.8 26.4z m16.8-57.6c-2.4-1.6 5.6-16 16.8-32l33.6-48c11.2-16 22.4-28 24.8-26.4 2.4 1.6-5.6 16-16.8 32l-33.6 48c-11.2 16-22.4 28-24.8 26.4z m32 22.4c-2.4-1.6 5.6-16 16.8-32l33.6-48c11.2-16 22.4-28 24.8-26.4 2.4 1.6-5.6 16-16.8 32l-33.6 48c-12 16-22.4 28-24.8 26.4z"></path></svg>