<svg t="1760499117265" class="icon" viewBox="0 0 1024 1024" version="1.1" xmlns="http://www.w3.org/2000/svg" p-id="7194" width="200" height="200"><path d="M804.48 281.6a85.7344 85.7344 0 0 1-24.32-9.6 138.87488 138.87488 0 0 1-103.68 18.56H670.72a105.59488 105.59488 0 0 1-112.64 49.92 103.0656 103.0656 0 0 1-46.08-27.52A104.95488 104.95488 0 0 1 414.72 343.04c-10.112 37.54496-48.7424 59.78112-86.28736 49.67424-37.54496-10.112-59.78112-48.7424-49.67424-86.28224A70.41024 70.41024 0 0 1 331.51488 256a108.20096 108.20096 0 0 1 0-42.24c11.58144-57.51808 67.59936-94.76096 125.11744-83.18464 0.96256 0.19456 1.92512 0.40448 2.88256 0.62464a103.03488 103.03488 0 0 1 47.36 24.96 106.25536 106.25536 0 0 1 64-30.72v-6.4c16.9216-74.94144 90.34752-122.8544 165.76-108.16a139.52512 139.52512 0 0 1 103.68 95.36c47.50848 13.83936 74.80832 63.57504 60.96896 111.08352-12.48256 42.83392-54.56896 69.9648-98.72896 63.63648l1.92512 0.64z" fill="" p-id="7195"></path><path d="M777.6 1016.32H179.2c-35.34336 0-64-28.65664-64-64V418.56c0-35.34336 28.65664-64 64-64h33.28c35.34336 0 64 28.65664 64 64v199.04h135.68v-32.64a33.28 33.28 0 0 1 35.84-33.28h108.8a64 64 0 0 1 56.96-33.28h166.4c35.34336 0 64 28.65664 64 64v365.44c2.50368 35.26144-24.04352 65.8688-59.29984 68.3776-2.42176 0.17408-4.8384 0.2048-7.26016 0.1024zM576 651.52h-97.28v99.2h97.28V651.52z m133.12 0H645.12v64h64v-64z" fill="" p-id="7196"></path></svg>