<svg t="1750131509395" class="icon" viewBox="0 0 1097 1024" version="1.1" xmlns="http://www.w3.org/2000/svg" p-id="11433" width="200" height="200"><path d="M758.857143 212.260571V92.013714c0.950857-28.598857-33.060571-60.123429-60.123429-60.123428H368.054857c-27.721143 0-60.123429 30.354286-60.123428 60.123428v120.246857H127.561143C82.651429 212.260571 37.302857 260.242286 37.302857 302.445714V452.754286h1022.098286V302.445714c0-44.763429-45.568-90.185143-90.185143-90.185143h-210.432z m-90.185143 0h-270.628571V152.137143c0-18.285714 11.995429-29.988571 30.134857-29.988572H638.537143c18.139429 0 29.988571 11.702857 29.988571 29.988572l0.073143 60.123428z m-121.417143 419.84c59.245714 0 61.293714-72.777143 61.293714-119.222857H458.24c1.024 37.302857 1.170286 120.246857 60.123429 120.246857 0 0 16.530286-1.024 28.891428-1.024z m121.417143-119.222857s47.616 180.370286-135.314286 180.370286c-188.854857 0-135.314286-180.370286-135.314285-180.370286H37.449143v420.864c0 46.226286 40.521143 90.185143 90.185143 90.185143h841.728c45.129143 0 90.185143-38.838857 90.185143-90.185143V512.877714H668.672z"></path></svg>