<svg t="1744185426553" class="icon" viewBox="0 0 1024 1024" version="1.1" xmlns="http://www.w3.org/2000/svg" width="1024" height="1024"><path d="M870.4 512c0 199.68-158.72 358.4-358.4 358.4s-358.4-158.72-358.4-358.4 158.72-358.4 358.4-358.4 358.4 158.72 358.4 358.4z"></path><path d="M512 51.2c-256 0-460.8 204.8-460.8 460.8s204.8 460.8 460.8 460.8 460.8-204.8 460.8-460.8-204.8-460.8-460.8-460.8z m0 716.8c-143.36 0-256-112.64-256-256s112.64-256 256-256 256 112.64 256 256-112.64 256-256 256z"></path></svg>